HIERARCHY
ROOT hip
{
  OFFSET 71.0277 84.7749 91.6343
  CHANNELS 6 Xposition Yposition Zposition Zrotation Xrotation Yrotation
  JOINT abdomen
  {
    OFFSET 0 20.6881 -0.73152
    CHANNELS 3 Zrotation Xrotation Yrotation
    JOINT chest
    {
      OFFSET 0 11.7043 -0.48768
      CHANNELS 3 Zrotation Xrotation Yrotation
      JOINT neck
      {
        OFFSET 0 22.1894 -2.19456
        CHANNELS 3 Zrotation Xrotation Yrotation
        JOINT head
        {
          OFFSET -0.24384 7.07133 1.2192
          CHANNELS 3 Zrotation Xrotation Yrotation
          JOINT leftEye
          {
            OFFSET 4.14528 8.04674 8.04672
            CHANNELS 3 Zrotation Xrotation Yrotation
            End Site
            {
              OFFSET 1 0 0
            }
          }
          JOINT rightEye
          {
            OFFSET -3.6576 8.04674 8.04672
            CHANNELS 3 Zrotation Xrotation Yrotation
            End Site
            {
              OFFSET 1 0 0
            }
          }
        }
      }
      JOINT rCollar
      {
        OFFSET -2.68224 19.2634 -4.8768
        CHANNELS 3 Zrotation Xrotation Yrotation
        JOINT rShldr
        {
          OFFSET -8.77824 -1.95073 1.46304
          CHANNELS 3 Zrotation Xrotation Yrotation
          JOINT rForeArm
          {
            OFFSET -28.1742 -1.7115 0.48768
            CHANNELS 3 Zrotation Xrotation Yrotation
            JOINT rHand
            {
              OFFSET -22.5879 0.773209 7.07136
              CHANNELS 3 Zrotation Xrotation Yrotation
              JOINT rThumb1
              {
                OFFSET -1.2192 -0.487915 3.41376
                CHANNELS 3 Zrotation Xrotation Yrotation
                JOINT rThumb2
                {
                  OFFSET -3.37035 -0.52449 3.41376
                  CHANNELS 3 Zrotation Xrotation Yrotation
                  End Site
                  {
                    OFFSET -1.78271 -1.18214 1.43049
                  }
                }
              }
              JOINT rIndex1
              {
                OFFSET -7.75947 0.938293 5.60832
                CHANNELS 3 Zrotation Xrotation Yrotation
                JOINT rIndex2
                {
                  OFFSET -2.54057 -0.884171 1.56538
                  CHANNELS 3 Zrotation Xrotation Yrotation
                  End Site
                  {
                    OFFSET -1.62519 -0.234802 1.16502
                  }
                }
              }
              JOINT rMid1
              {
                OFFSET -8.24714 1.18213 3.41376
                CHANNELS 3 Zrotation Xrotation Yrotation
                JOINT rMid2
                {
                  OFFSET -3.10165 -0.590103 1.0647
                  CHANNELS 3 Zrotation Xrotation Yrotation
                  End Site
                  {
                    OFFSET -2.48547 -0.328903 0.83742
                  }
                }
              }
              JOINT rRing1
              {
                OFFSET -8.82822 0.546677 1.51678
                CHANNELS 3 Zrotation Xrotation Yrotation
                JOINT rRing2
                {
                  OFFSET -2.60934 -0.819778 -0.0198488
                  CHANNELS 3 Zrotation Xrotation Yrotation
                  End Site
                  {
                    OFFSET -2.33842 -0.294052 0.168128
                  }
                }
              }
              JOINT rPinky1
              {
                OFFSET -8.27202 -0.0477905 -0.4584
                CHANNELS 3 Zrotation Xrotation Yrotation
                JOINT rPinky2
                {
                  OFFSET -1.82734 -0.647385 -0.700984
                  CHANNELS 3 Zrotation Xrotation Yrotation
                  End Site
                  {
                    OFFSET -1.69225 -0.51767 -0.607171
                  }
                }
              }
            }
          }
        }
      }
      JOINT lCollar
      {
        OFFSET 2.68224 19.2634 -4.8768
        CHANNELS 3 Zrotation Xrotation Yrotation
        JOINT lShldr
        {
          OFFSET 8.77824 -1.95073 1.46304
          CHANNELS 3 Zrotation Xrotation Yrotation
          JOINT lForeArm
          {
            OFFSET 28.1742 -1.7115 0.48768
            CHANNELS 3 Zrotation Xrotation Yrotation
            JOINT lHand
            {
              OFFSET 22.5879 0.773209 7.07136
              CHANNELS 3 Zrotation Xrotation Yrotation
              JOINT lThumb1
              {
                OFFSET 1.2192 -0.487915 3.41376
                CHANNELS 3 Zrotation Xrotation Yrotation
                JOINT lThumb2
                {
                  OFFSET 3.37035 -0.52449 3.41376
                  CHANNELS 3 Zrotation Xrotation Yrotation
                  End Site
                  {
                    OFFSET 1.78271 -1.18214 1.43049
                  }
                }
              }
              JOINT lIndex1
              {
                OFFSET 7.75947 0.938293 5.60832
                CHANNELS 3 Zrotation Xrotation Yrotation
                JOINT lIndex2
                {
                  OFFSET 2.54057 -0.884171 1.56538
                  CHANNELS 3 Zrotation Xrotation Yrotation
                  End Site
                  {
                    OFFSET 1.62519 -0.234802 1.16502
                  }
                }
              }
              JOINT lMid1
              {
                OFFSET 8.24714 1.18213 3.41376
                CHANNELS 3 Zrotation Xrotation Yrotation
                JOINT lMid2
                {
                  OFFSET 3.10165 -0.590103 1.0647
                  CHANNELS 3 Zrotation Xrotation Yrotation
                  End Site
                  {
                    OFFSET 2.48547 -0.328903 0.83742
                  }
                }
              }
              JOINT lRing1
              {
                OFFSET 8.82822 0.546677 1.51678
                CHANNELS 3 Zrotation Xrotation Yrotation
                JOINT lRing2
                {
                  OFFSET 2.60934 -0.819778 -0.0198488
                  CHANNELS 3 Zrotation Xrotation Yrotation
                  End Site
                  {
                    OFFSET 2.33842 -0.294052 0.168128
                  }
                }
              }
              JOINT lPinky1
              {
                OFFSET 8.27202 -0.0477905 -0.4584
                CHANNELS 3 Zrotation Xrotation Yrotation
                JOINT lPinky2
                {
                  OFFSET 1.82734 -0.647385 -0.700984
                  CHANNELS 3 Zrotation Xrotation Yrotation
                  End Site
                  {
                    OFFSET 1.69225 -0.51767 -0.607171
                  }
                }
              }
            }
          }
        }
      }
    }
  }
  JOINT rButtock
  {
    OFFSET -8.77824 4.35084 1.2192
    CHANNELS 3 Zrotation Xrotation Yrotation
    JOINT rThigh
    {
      OFFSET 0 -1.70687 -2.19456
      CHANNELS 3 Zrotation Xrotation Yrotation
      JOINT rShin
      {
        OFFSET 0 -36.8199 0.73152
        CHANNELS 3 Zrotation Xrotation Yrotation
        JOINT rFoot
        {
          OFFSET 0.73152 -45.1104 -5.12064
          CHANNELS 3 Zrotation Xrotation Yrotation
          End Site
          {
            OFFSET -1.1221 -3.69964 12.103
          }
        }
      }
    }
  }
  JOINT lButtock
  {
    OFFSET 8.77824 4.35084 1.2192
    CHANNELS 3 Zrotation Xrotation Yrotation
    JOINT lThigh
    {
      OFFSET 0 -1.70687 -2.19456
      CHANNELS 3 Zrotation Xrotation Yrotation
      JOINT lShin
      {
        OFFSET 0 -36.8199 0.73152
        CHANNELS 3 Zrotation Xrotation Yrotation
        JOINT lFoot
        {
          OFFSET -0.73152 -45.1104 -5.12064
          CHANNELS 3 Zrotation Xrotation Yrotation
          End Site
          {
            OFFSET 1.1221 -3.69964 12.103
          }
        }
      }
    }
  }
}
MOTION
Frames:	4
Frame Time:	0.00833333
91.351 84.3987 35.3753 -4.779 2.70955 -122.599 20.002 1.67153 2.43059 1.76368 -5.56962 1.26404 14.3947 25.7597 7.20441 -24.3952 -42.3632 8.04639 -0 0 0 -0 0 0 -2.32217e-013 1.16326e-012 -1.39786e-012 -5.02788 22.1858 64.2518 -23.6215 -18.4066 48.4335 -0.904439 -25.9566 -3.92292 3.14363e-009 -8.68769e-009 -2.85076e-009 5.48389e-009 -1.48889e-008 -4.84542e-009 3.14363e-009 -8.68768e-009 -2.85077e-009 7.73091 5.47488 0.417314 3.14363e-009 -8.68769e-009 -2.85076e-009 2.90554 0.965183 0.102902 3.14363e-009 -8.68769e-009 -2.85076e-009 10.2786 0.731801 0.0259123 3.14362e-009 -8.68769e-009 -2.85075e-009 2.22167 -0.733487 -0.20892 -2.32251e-013 1.16319e-012 -1.39825e-012 13.8408 -10.9691 -2.98388 22.345 -16.2843 -44.7326 0.0649835 -7.25251 1.02481 -7.77909e-009 -3.65939e-011 1.78715e-009 -1.34453e-008 -3.64047e-011 3.05037e-009 -7.7791e-009 -3.65897e-011 1.78716e-009 -7.73091 5.47488 -0.417314 -7.77909e-009 -3.66023e-011 1.78715e-009 -2.90554 0.965183 -0.102902 -7.77909e-009 -3.65971e-011 1.78715e-009 -10.2786 0.731801 -0.0259123 -7.77909e-009 -3.65925e-011 1.78715e-009 -2.22167 -0.733487 0.20892 -2.03217e-016 0 -3.88251e-019 -17.413 -25.6568 -0.293101 -0.113969 23.1616 0.0666756 -3.01994 -2.28876 -22.2775 2.03217e-016 0 3.88251e-019 -10.9226 -9.28389 6.00179 0.257686 35.5378 -0.600912 1.80826 -20.4468 2.5464 
91.3457 84.3863 35.1404 -4.58466 2.95572 -123.202 19.9709 1.74139 2.37671 1.78911 -5.58115 1.25529 14.3994 25.7748 7.30785 -24.7767 -42.491 8.12133 -0 0 0 -0 0 0 -2.0359e-013 1.01781e-012 -1.2753e-012 -5.17523 22.0508 64.4001 -23.639 -18.4377 48.487 -0.901859 -25.9226 -3.91701 2.89674e-009 -8.3984e-009 -2.84595e-009 5.0577e-009 -1.43996e-008 -4.84557e-009 2.89674e-009 -8.39839e-009 -2.84596e-009 7.73091 5.47488 0.417314 2.89674e-009 -8.3984e-009 -2.84596e-009 2.90554 0.965183 0.102902 2.89675e-009 -8.39839e-009 -2.84595e-009 10.2786 0.731801 0.0259123 2.89674e-009 -8.3984e-009 -2.84594e-009 2.22167 -0.733487 -0.20892 -2.03583e-013 1.01774e-012 -1.2757e-012 13.9736 -11.0056 -2.90277 22.3432 -16.2815 -44.7275 0.064678 -7.23749 1.02266 -6.95907e-009 -5.79512e-011 1.4149e-009 -1.20259e-008 -7.66991e-011 2.41177e-009 -6.95908e-009 -5.79489e-011 1.41491e-009 -7.73091 5.47488 -0.417314 -6.95907e-009 -5.79627e-011 1.41491e-009 -2.90554 0.965183 -0.102902 -6.95908e-009 -5.7955e-011 1.41491e-009 -10.2786 0.731801 -0.0259123 -6.95907e-009 -5.79533e-011 1.4149e-009 -2.22167 -0.733487 0.20892 -2.03217e-016 0 -3.88251e-019 -17.2455 -26.2328 -0.174583 -0.11456 22.9832 0.0518571 -2.55676 -1.32066 -21.7867 2.03217e-016 0 3.88251e-019 -11.2715 -9.07922 5.6949 0.254453 35.3362 -0.595567 1.58975 -20.4054 2.09692 
91.3724 84.3794 34.9627 -4.40582 3.19053 -123.794 19.9286 1.82988 2.35421 1.85647 -5.62219 1.26015 14.4724 25.8192 7.40245 -25.2494 -42.6199 8.16314 -0 0 0 -0 0 0 -1.81063e-013 8.38617e-013 -1.12718e-012 -5.32331 21.9376 64.5034 -23.6488 -18.4552 48.5171 -0.906851 -25.9885 -3.92848 2.82253e-009 -8.11638e-009 -2.72573e-009 4.92658e-009 -1.39138e-008 -4.6416e-009 2.82253e-009 -8.11637e-009 -2.72574e-009 7.73091 5.47488 0.417314 2.82253e-009 -8.11638e-009 -2.72574e-009 2.90554 0.965183 0.102902 2.82254e-009 -8.11637e-009 -2.72574e-009 10.2786 0.731801 0.0259123 2.82253e-009 -8.11638e-009 -2.72573e-009 2.22167 -0.733487 -0.20892 -1.81027e-013 8.38555e-013 -1.12754e-012 14.0606 -11.0075 -2.86439 22.3467 -16.287 -44.7372 0.0647389 -7.24073 1.02313 -6.09785e-009 1.76022e-010 1.31606e-009 -1.05377e-008 3.25571e-010 2.24682e-009 -6.09785e-009 1.76023e-010 1.31607e-009 -7.73091 5.47488 -0.417314 -6.09785e-009 1.76013e-010 1.31606e-009 -2.90554 0.965183 -0.102902 -6.09785e-009 1.76019e-010 1.31606e-009 -10.2786 0.731801 -0.0259123 -6.09785e-009 1.7602e-010 1.31606e-009 -2.22167 -0.733487 0.20892 -2.03217e-016 0 -3.88251e-019 -17.029 -26.7923 -0.00306565 -0.11559 22.8246 0.0381875 -2.09654 -0.277057 -21.4193 2.03217e-016 0 3.88251e-019 -11.6067 -8.81478 5.35993 0.249894 35.0512 -0.588139 1.31292 -20.3286 1.52074 
91.4213 84.3849 34.8036 -4.23785 3.42626 -124.38 19.8662 1.93996 2.34775 1.95254 -5.68267 1.27269 14.5917 25.8876 7.49397 -25.7851 -42.7597 8.18732 -0 0 0 -0 0 0 -1.57683e-013 6.32651e-013 -9.5015e-013 -5.47518 21.8392 64.58 -23.6544 -18.4652 48.5342 -0.917041 -26.1217 -3.95172 2.825e-009 -7.74491e-009 -2.49587e-009 4.92514e-009 -1.32685e-008 -4.24595e-009 2.825e-009 -7.7449e-009 -2.49588e-009 7.73091 5.47488 0.417314 2.825e-009 -7.74491e-009 -2.49588e-009 2.90554 0.965183 0.102902 2.82501e-009 -7.7449e-009 -2.49588e-009 10.2786 0.731801 0.0259123 2.82499e-009 -7.74491e-009 -2.49586e-009 2.22167 -0.733487 -0.20892 -1.57625e-013 6.32615e-013 -9.50427e-013 14.1248 -10.9848 -2.84999 22.3524 -16.2957 -44.7528 0.0652805 -7.27087 1.02743 -5.15272e-009 5.76596e-010 1.38448e-009 -8.90608e-009 1.01652e-009 2.37183e-009 -5.15272e-009 5.76597e-010 1.38449e-009 -7.73091 5.47488 -0.417314 -5.15272e-009 5.76593e-010 1.38448e-009 -2.90554 0.965183 -0.102902 -5.15272e-009 5.76595e-010 1.38448e-009 -10.2786 0.731801 -0.0259123 -5.15271e-009 5.76597e-010 1.38448e-009 -2.22167 -0.733487 0.20892 -2.03217e-016 0 -3.88251e-019 -16.7635 -27.3141 0.245448 -0.11669 22.6719 0.026953 -1.67152 0.7293 -21.1067 2.03217e-016 0 3.88251e-019 -11.9351 -8.49975 5.00672 0.244412 34.7055 -0.57932 0.990928 -20.2224 0.843629 
